<?xml version="1.0" encoding="UTF-8" standalone="no"?>
<svg
   xmlns:osb="http://www.openswatchbook.org/uri/2009/osb"
   xmlns:dc="http://purl.org/dc/elements/1.1/"
   xmlns:cc="http://creativecommons.org/ns#"
   xmlns:rdf="http://www.w3.org/1999/02/22-rdf-syntax-ns#"
   xmlns:svg="http://www.w3.org/2000/svg"
   xmlns="http://www.w3.org/2000/svg"
   xmlns:sodipodi="http://sodipodi.sourceforge.net/DTD/sodipodi-0.dtd"
   xmlns:inkscape="http://www.inkscape.org/namespaces/inkscape"
   width="22in"
   height="17in"
   viewBox="0 0 558.79998 431.79999"
   version="1.1"
   id="svg116"
   sodipodi:docname="cut for camera.svg"
   inkscape:version="0.92.3 (2405546, 2018-03-11)">
  <metadata
     id="metadata122">
    <rdf:RDF>
      <cc:Work
         rdf:about="">
        <dc:format>image/svg+xml</dc:format>
        <dc:type
           rdf:resource="http://purl.org/dc/dcmitype/StillImage" />
        <dc:title></dc:title>
      </cc:Work>
    </rdf:RDF>
  </metadata>
  <defs
     id="defs120">
    <linearGradient
       id="linearGradient959"
       osb:paint="solid">
      <stop
         style="stop-color:#000000;stop-opacity:1;"
         offset="0"
         id="stop957" />
    </linearGradient>
    <inkscape:path-effect
       effect="bspline"
       id="path-effect138"
       is_visible="true"
       weight="33.333333"
       steps="2"
       helper_size="0"
       apply_no_weight="true"
       apply_with_weight="true"
       only_selected="false" />
  </defs>
  <sodipodi:namedview
     pagecolor="#ffffff"
     bordercolor="#666666"
     borderopacity="1"
     objecttolerance="10"
     gridtolerance="10"
     guidetolerance="10"
     inkscape:pageopacity="0"
     inkscape:pageshadow="2"
     inkscape:window-width="1920"
     inkscape:window-height="1017"
     id="namedview118"
     showgrid="false"
     units="in"
     inkscape:zoom="0.75674817"
     inkscape:cx="717.10462"
     inkscape:cy="1206.4163"
     inkscape:window-x="-8"
     inkscape:window-y="-8"
     inkscape:window-maximized="1"
     inkscape:current-layer="svg116"
     inkscape:measure-start="1.01015,778.828"
     inkscape:measure-end="308.097,776.807" />
  <!-- wedge -->
  <!-- wedge -->
  <!-- wedge -->
  <!-- wedge -->
  <!-- wedge -->
  <!-- wedge -->
  <!-- wedge -->
  <!-- wedge -->
  <!-- wedge -->
  <!-- wedge -->
  <!-- wedge -->
  <!-- wedge -->
  <!-- wedge -->
  <!-- wedge -->
  <!-- wedge -->
  <!-- wedge -->
  <!-- wedge -->
  <!-- wedge -->
  <!-- wedge -->
  <!-- wedge -->
  <!-- wedge -->
  <!-- wedge -->
  <path
     d="m 12.961299,1.0198439 v 4.6875 H 77.961301 V 8.8323434 H 12.961299 V 24.832344 H 5.6612997 a 4.6875,4.6875 0 0 0 0,9.375 h 7.2999993 v 49.9375 H 5.6612997 a 4.6875015,4.6875015 0 0 0 0,9.375 H 12.961299 V 143.45734 H 5.6612997 a 4.6875,4.6875 0 0 0 0,9.375 h 7.2999993 v 16 h 65.000002 v 3.125 H 12.961299 v 4.6875 H 142.96129 v -4.6875 -3.125 -16 h 7.3 a 4.6875,4.6875 0 0 0 0,-9.375 h -7.3 V 93.519844 h 7.3 a 4.6875015,4.6875015 0 0 0 0,-9.375 h -7.3 v -49.9375 h 7.3 a 4.6875,4.6875 0 0 0 0,-9.375 h -7.3 V 8.8323434 4.1448439 v -3.125 H 12.961299"
     id="path100"
     inkscape:connector-curvature="0"
     style="fill:none;stroke:#000000;stroke-width:0.30000001" />
  <path
     d="m 12.961299,1.0198439 m 0,4.6875 m 0,3.1249995 m 0,16.0000006 m 0,4.6875 m -2.925,0 v -1.5625 H 3.7862997 v 3.125 h 6.2499993 v -1.5625 m 2.925,0 m 0,4.6875 m 0,49.9375 m 0,4.6875 m -2.925,0 v -1.5625 H 3.7862997 v 3.125 h 6.2499993 v -1.5625 m 2.925,0 m 0,4.6875 m 0,49.937496 m 0,4.6875 m -2.925,0 v -1.5625 H 3.7862997 v 3.125 h 6.2499993 v -1.5625 m 2.925,0 m 0,4.6875 m 0,16 m 0,3.125 m 0,4.6875 m 129.999991,0 m 0,-4.6875 m 0,-3.125 m 0,-16 m 0,-4.6875 m 2.925,0 v -1.5625 h 6.25 v 3.125 h -6.25 v -1.5625 m -2.925,0 m 0,-4.6875 m 0,-49.937496 m 0,-4.6875 m 2.925,0 v -1.5625 h 6.25 v 3.125 h -6.25 v -1.5625 m -2.925,0 m 0,-4.6875 m 0,-49.9375 m 0,-4.6875 m 2.925,0 v -1.5625 h 6.25 v 3.125 h -6.25 v -1.5625 m -2.925,0 m 0,-4.6875 m 0,-16.0000006 m 0,-4.6874995 m 0,-3.125 m -129.999991,0"
     id="path102"
     inkscape:connector-curvature="0"
     style="fill:none;stroke:#8a2be2;stroke-width:0.30000001" />
  <rect
     style="opacity:1;fill:none;fill-opacity:1;stroke:#000000;stroke-width:0.54047638;stroke-miterlimit:4;stroke-dasharray:none;stroke-opacity:0.98994978"
     id="rect965"
     width="24.859522"
     height="31.209522"
     x="68.812416"
     y="-71.734703"
     transform="rotate(90)" />
</svg>
