<?xml version="1.0" encoding="UTF-8" standalone="no"?>
<svg
   xmlns:dc="http://purl.org/dc/elements/1.1/"
   xmlns:cc="http://creativecommons.org/ns#"
   xmlns:rdf="http://www.w3.org/1999/02/22-rdf-syntax-ns#"
   xmlns:svg="http://www.w3.org/2000/svg"
   xmlns="http://www.w3.org/2000/svg"
   xmlns:sodipodi="http://sodipodi.sourceforge.net/DTD/sodipodi-0.dtd"
   xmlns:inkscape="http://www.inkscape.org/namespaces/inkscape"
   width="20in"
   height="12in"
   viewBox="0 0 507.99998 304.8"
   version="1.1"
   id="svg3949"
   sodipodi:docname="Sides1.svg"
   inkscape:version="0.92.3 (2405546, 2018-03-11)">
  <metadata
     id="metadata3955">
    <rdf:RDF>
      <cc:Work
         rdf:about="">
        <dc:format>image/svg+xml</dc:format>
        <dc:type
           rdf:resource="http://purl.org/dc/dcmitype/StillImage" />
        <dc:title></dc:title>
      </cc:Work>
    </rdf:RDF>
  </metadata>
  <defs
     id="defs3953" />
  <sodipodi:namedview
     pagecolor="#ffffff"
     bordercolor="#666666"
     borderopacity="1"
     objecttolerance="10"
     gridtolerance="10"
     guidetolerance="10"
     inkscape:pageopacity="0"
     inkscape:pageshadow="2"
     inkscape:window-width="1920"
     inkscape:window-height="1017"
     id="namedview3951"
     showgrid="false"
     units="in"
     inkscape:zoom="0.41569305"
     inkscape:cx="2159.045"
     inkscape:cy="491.98983"
     inkscape:window-x="-8"
     inkscape:window-y="-8"
     inkscape:window-maximized="1"
     inkscape:current-layer="svg3949" />
  <!-- wedge -->
  <!-- wedge -->
  <!-- wedge -->
  <!-- wedge -->
  <!-- wedge -->
  <!-- wedge -->
  <!-- wedge -->
  <!-- wedge -->
  <!-- wedge -->
  <!-- wedge -->
  <!-- wedge -->
  <!-- wedge -->
  <!-- wedge -->
  <!-- wedge -->
  <!-- wedge -->
  <!-- wedge -->
  <!-- wedge -->
  <!-- wedge -->
  <!-- wedge -->
  <!-- wedge -->
  <!-- wedge -->
  <!-- wedge -->
  <path
     d="m 764.39845,90.225494 h -4.6875 v 64.999996 h -3.125 V 90.225494 h -16 v -7.30001 a 4.6875001,4.6875001 0 0 0 -9.37499,0 v 7.30001 h -49.93751 v -7.30001 a 4.6875055,4.6875055 0 0 0 -9.37501,0 v 7.30001 h -49.93748 v -7.30001 a 4.6875051,4.6875051 0 0 0 -9.37501,0 v 7.30001 h -15.99999 v 64.999996 h -3.12502 V 90.225494 h -4.68749 V 220.22547 h 4.68749 3.12502 15.99999 v 7.30002 a 4.6875051,4.6875051 0 0 0 9.37501,0 v -7.30002 h 49.93748 v 7.30002 a 4.6875055,4.6875055 0 0 0 9.37501,0 v -7.30002 h 49.93751 v 7.30002 a 4.6875001,4.6875001 0 0 0 9.37499,0 v -7.30002 h 16 4.6875 3.125 V 90.225494"
     id="path3933"
     inkscape:connector-curvature="0"
     style="fill:none;stroke:#000000;stroke-width:0.30000001" />
  <path
     d="m 764.39845,90.225494 m -4.6875,0 m -3.125,0 m -16,0 m -4.68749,0 m 0,-2.92501 h 1.5625 v -6.25 h -3.125 v 6.25 h 1.5625 m 0,2.92501 m -4.6875,0 m -49.93751,0 m -4.68749,0 m 0,-2.92501 h 1.56249 v -6.25 h -3.12499 v 6.25 h 1.5625 m 0,2.92501 m -4.68752,0 m -49.93748,0 m -4.68752,0 m 0,-2.92501 h 1.56252 v -6.25 h -3.12502 v 6.25 h 1.5625 m 0,2.92501 m -4.68749,0 m -15.99999,0 m -3.12502,0 m -4.68749,0 m 0,129.999976 m 4.68749,0 m 3.12502,0 m 15.99999,0 m 4.68749,0 m 0,2.92503 h 1.56252 v 6.24999 h -3.12502 v -6.24999 h 1.5625 m 0,-2.92503 m 4.68752,0 m 49.93748,0 m 4.68752,0 m 0,2.92503 h 1.56249 v 6.24999 h -3.12499 v -6.24999 h 1.5625 m 0,-2.92503 m 4.68749,0 m 49.93751,0 m 4.6875,0 m 0,2.92503 h 1.5625 v 6.24999 h -3.125 v -6.24999 h 1.5625 m 0,-2.92503 m 4.68749,0 m 16,0 m 4.6875,0 m 3.125,0 m 0,-129.999976"
     id="path3935"
     inkscape:connector-curvature="0"
     style="fill:none;stroke:#8a2be2;stroke-width:0.30000001" />
  <g
     transform="matrix(0.28222223,0,0,0.28222223,-44.099472,39.475733)"
     id="g14342">
    <polygon
       style="fill:none;stroke:#000000;stroke-width:0.89999998"
       points="78.12,0 105.12,0 105.12,10.62 132.12,10.62 132.12,0 159.12,0 159.12,10.62 186.12,10.62 186.12,0 213.12,0 213.12,10.62 240.12,10.62 240.12,0 267.12,0 267.12,10.62 294.12,10.62 294.12,0 321.12,0 321.12,10.62 348.12,10.62 348.12,0 375.12,0 375.12,10.62 402.12,10.62 402.12,0 429.12,0 429.12,10.62 456.12,10.62 456.12,0 483.12,0 483.12,10.62 522.18,10.62 522.18,0 561.24,0 561.24,39.06 550.62,39.06 550.62,78.12 561.24,78.12 561.24,105.12 550.62,105.12 550.62,132.12 561.24,132.12 561.24,159.12 550.62,159.12 550.62,186.12 561.24,186.12 561.24,213.12 550.62,213.12 550.62,240.12 561.24,240.12 561.24,267.12 550.62,267.12 550.62,294.12 561.24,294.12 561.24,321.12 550.62,321.12 550.62,348.12 561.24,348.12 561.24,375.12 550.62,375.12 550.62,402.12 561.24,402.12 561.24,429.12 550.62,429.12 550.62,456.12 561.24,456.12 561.24,483.12 550.62,483.12 550.62,522.18 561.24,522.18 561.24,561.24 522.18,561.24 522.18,550.62 483.12,550.62 483.12,561.24 456.12,561.24 456.12,550.62 429.12,550.62 429.12,561.24 402.12,561.24 402.12,550.62 375.12,550.62 375.12,561.24 348.12,561.24 348.12,550.62 321.12,550.62 321.12,561.24 294.12,561.24 294.12,550.62 267.12,550.62 267.12,561.24 240.12,561.24 240.12,550.62 213.12,550.62 213.12,561.24 186.12,561.24 186.12,550.62 159.12,550.62 159.12,561.24 132.12,561.24 132.12,550.62 105.12,550.62 105.12,561.24 78.12,561.24 78.12,550.62 39.06,550.62 39.06,561.24 0,561.24 0,522.18 10.62,522.18 10.62,483.12 0,483.12 0,456.12 10.62,456.12 10.62,429.12 0,429.12 0,402.12 10.62,402.12 10.62,375.12 0,375.12 0,348.12 10.62,348.12 10.62,321.12 0,321.12 0,294.12 10.62,294.12 10.62,267.12 0,267.12 0,240.12 10.62,240.12 10.62,213.12 0,213.12 0,186.12 10.62,186.12 10.62,159.12 0,159.12 0,132.12 10.62,132.12 10.62,105.12 0,105.12 0,78.12 10.62,78.12 10.62,39.06 0,39.06 0,0 39.06,0 39.06,10.62 78.12,10.62 "
       id="polygon14340" />
  </g>
  <g
     transform="matrix(0.28222223,0,0,0.28222223,114.29493,39.475733)"
     id="g14346">
    <polygon
       style="fill:none;stroke:#000000;stroke-width:0.89999998"
       points="78.12,0 105.12,0 105.12,10.62 132.12,10.62 132.12,0 159.12,0 159.12,10.62 186.12,10.62 186.12,0 213.12,0 213.12,10.62 240.12,10.62 240.12,0 267.12,0 267.12,10.62 294.12,10.62 294.12,0 321.12,0 321.12,10.62 348.12,10.62 348.12,0 375.12,0 375.12,10.62 402.12,10.62 402.12,0 429.12,0 429.12,10.62 456.12,10.62 456.12,0 483.12,0 483.12,10.62 522.18,10.62 522.18,0 561.24,0 561.24,39.06 550.62,39.06 550.62,78.12 561.24,78.12 561.24,105.12 550.62,105.12 550.62,132.12 561.24,132.12 561.24,159.12 550.62,159.12 550.62,186.12 561.24,186.12 561.24,213.12 550.62,213.12 550.62,240.12 561.24,240.12 561.24,267.12 550.62,267.12 550.62,294.12 561.24,294.12 561.24,321.12 550.62,321.12 550.62,348.12 561.24,348.12 561.24,375.12 550.62,375.12 550.62,402.12 561.24,402.12 561.24,429.12 550.62,429.12 550.62,456.12 561.24,456.12 561.24,483.12 550.62,483.12 550.62,522.18 561.24,522.18 561.24,561.24 522.18,561.24 522.18,550.62 483.12,550.62 483.12,561.24 456.12,561.24 456.12,550.62 429.12,550.62 429.12,561.24 402.12,561.24 402.12,550.62 375.12,550.62 375.12,561.24 348.12,561.24 348.12,550.62 321.12,550.62 321.12,561.24 294.12,561.24 294.12,550.62 267.12,550.62 267.12,561.24 240.12,561.24 240.12,550.62 213.12,550.62 213.12,561.24 186.12,561.24 186.12,550.62 159.12,550.62 159.12,561.24 132.12,561.24 132.12,550.62 105.12,550.62 105.12,561.24 78.12,561.24 78.12,550.62 39.06,550.62 39.06,561.24 0,561.24 0,522.18 10.62,522.18 10.62,483.12 0,483.12 0,456.12 10.62,456.12 10.62,429.12 0,429.12 0,402.12 10.62,402.12 10.62,375.12 0,375.12 0,348.12 10.62,348.12 10.62,321.12 0,321.12 0,294.12 10.62,294.12 10.62,267.12 0,267.12 0,240.12 10.62,240.12 10.62,213.12 0,213.12 0,186.12 10.62,186.12 10.62,159.12 0,159.12 0,132.12 10.62,132.12 10.62,105.12 0,105.12 0,78.12 10.62,78.12 10.62,39.06 0,39.06 0,0 39.06,0 39.06,10.62 78.12,10.62 "
       id="polygon14344" />
  </g>
  <g
     transform="matrix(0.28222223,0,0,0.28222223,272.68932,39.475733)"
     id="g14350">
    <polygon
       style="fill:none;stroke:#000000;stroke-width:0.89999998"
       points="78.12,0 105.12,0 105.12,10.62 132.12,10.62 132.12,0 159.12,0 159.12,10.62 186.12,10.62 186.12,0 213.12,0 213.12,10.62 240.12,10.62 240.12,0 267.12,0 267.12,10.62 294.12,10.62 294.12,0 321.12,0 321.12,10.62 348.12,10.62 348.12,0 375.12,0 375.12,10.62 402.12,10.62 402.12,0 429.12,0 429.12,10.62 456.12,10.62 456.12,0 483.12,0 483.12,10.62 522.18,10.62 522.18,0 550.62,0 550.62,39.06 561.24,39.06 561.24,78.12 550.62,78.12 550.62,105.12 561.24,105.12 561.24,132.12 550.62,132.12 550.62,159.12 561.24,159.12 561.24,186.12 550.62,186.12 550.62,213.12 561.24,213.12 561.24,240.12 550.62,240.12 550.62,267.12 561.24,267.12 561.24,294.12 550.62,294.12 550.62,321.12 561.24,321.12 561.24,348.12 550.62,348.12 550.62,375.12 561.24,375.12 561.24,402.12 550.62,402.12 550.62,429.12 561.24,429.12 561.24,456.12 550.62,456.12 550.62,483.12 561.24,483.12 561.24,522.18 550.62,522.18 550.62,561.24 522.18,561.24 522.18,550.62 483.12,550.62 483.12,561.24 456.12,561.24 456.12,550.62 429.12,550.62 429.12,561.24 402.12,561.24 402.12,550.62 375.12,550.62 375.12,561.24 348.12,561.24 348.12,550.62 321.12,550.62 321.12,561.24 294.12,561.24 294.12,550.62 267.12,550.62 267.12,561.24 240.12,561.24 240.12,550.62 213.12,550.62 213.12,561.24 186.12,561.24 186.12,550.62 159.12,550.62 159.12,561.24 132.12,561.24 132.12,550.62 105.12,550.62 105.12,561.24 78.12,561.24 78.12,550.62 39.06,550.62 39.06,561.24 10.62,561.24 10.62,522.18 0,522.18 0,483.12 10.62,483.12 10.62,456.12 0,456.12 0,429.12 10.62,429.12 10.62,402.12 0,402.12 0,375.12 10.62,375.12 10.62,348.12 0,348.12 0,321.12 10.62,321.12 10.62,294.12 0,294.12 0,267.12 10.62,267.12 10.62,240.12 0,240.12 0,213.12 10.62,213.12 10.62,186.12 0,186.12 0,159.12 10.62,159.12 10.62,132.12 0,132.12 0,105.12 10.62,105.12 10.62,78.12 0,78.12 0,39.06 10.62,39.06 10.62,0 39.06,0 39.06,10.62 78.12,10.62 "
       id="polygon14348" />
  </g>
  <g
     transform="matrix(0.28222223,0,0,0.28222223,272.68932,197.87013)"
     id="g14354">
    <polygon
       style="fill:none;stroke:#000000;stroke-width:0.89999998"
       points="78.12,0 105.12,0 105.12,10.62 132.12,10.62 132.12,0 159.12,0 159.12,10.62 186.12,10.62 186.12,0 213.12,0 213.12,10.62 240.12,10.62 240.12,0 267.12,0 267.12,10.62 294.12,10.62 294.12,0 321.12,0 321.12,10.62 348.12,10.62 348.12,0 375.12,0 375.12,10.62 402.12,10.62 402.12,0 429.12,0 429.12,10.62 456.12,10.62 456.12,0 483.12,0 483.12,10.62 522.18,10.62 522.18,0 550.62,0 550.62,39.06 561.24,39.06 561.24,78.12 550.62,78.12 550.62,105.12 561.24,105.12 561.24,132.12 550.62,132.12 550.62,159.12 561.24,159.12 561.24,186.12 550.62,186.12 550.62,213.12 561.24,213.12 561.24,240.12 550.62,240.12 550.62,267.12 561.24,267.12 561.24,294.12 550.62,294.12 550.62,321.12 561.24,321.12 561.24,348.12 550.62,348.12 550.62,375.12 561.24,375.12 561.24,402.12 550.62,402.12 550.62,429.12 561.24,429.12 561.24,456.12 550.62,456.12 550.62,483.12 561.24,483.12 561.24,522.18 550.62,522.18 550.62,561.24 522.18,561.24 522.18,550.62 483.12,550.62 483.12,561.24 456.12,561.24 456.12,550.62 429.12,550.62 429.12,561.24 402.12,561.24 402.12,550.62 375.12,550.62 375.12,561.24 348.12,561.24 348.12,550.62 321.12,550.62 321.12,561.24 294.12,561.24 294.12,550.62 267.12,550.62 267.12,561.24 240.12,561.24 240.12,550.62 213.12,550.62 213.12,561.24 186.12,561.24 186.12,550.62 159.12,550.62 159.12,561.24 132.12,561.24 132.12,550.62 105.12,550.62 105.12,561.24 78.12,561.24 78.12,550.62 39.06,550.62 39.06,561.24 10.62,561.24 10.62,522.18 0,522.18 0,483.12 10.62,483.12 10.62,456.12 0,456.12 0,429.12 10.62,429.12 10.62,402.12 0,402.12 0,375.12 10.62,375.12 10.62,348.12 0,348.12 0,321.12 10.62,321.12 10.62,294.12 0,294.12 0,267.12 10.62,267.12 10.62,240.12 0,240.12 0,213.12 10.62,213.12 10.62,186.12 0,186.12 0,159.12 10.62,159.12 10.62,132.12 0,132.12 0,105.12 10.62,105.12 10.62,78.12 0,78.12 0,39.06 10.62,39.06 10.62,0 39.06,0 39.06,10.62 78.12,10.62 "
       id="polygon14352" />
  </g>
  <g
     transform="matrix(0.28222223,0,0,0.28222223,-44.099472,197.87013)"
     id="g14358">
    <polygon
       style="fill:none;stroke:#000000;stroke-width:0.89999998"
       points="78.12,10.62 105.12,10.62 105.12,0 132.12,0 132.12,10.62 159.12,10.62 159.12,0 186.12,0 186.12,10.62 213.12,10.62 213.12,0 240.12,0 240.12,10.62 267.12,10.62 267.12,0 294.12,0 294.12,10.62 321.12,10.62 321.12,0 348.12,0 348.12,10.62 375.12,10.62 375.12,0 402.12,0 402.12,10.62 429.12,10.62 429.12,0 456.12,0 456.12,10.62 483.12,10.62 483.12,0 522.18,0 522.18,10.62 550.62,10.62 550.62,39.06 561.24,39.06 561.24,78.12 550.62,78.12 550.62,105.12 561.24,105.12 561.24,132.12 550.62,132.12 550.62,159.12 561.24,159.12 561.24,186.12 550.62,186.12 550.62,213.12 561.24,213.12 561.24,240.12 550.62,240.12 550.62,267.12 561.24,267.12 561.24,294.12 550.62,294.12 550.62,321.12 561.24,321.12 561.24,348.12 550.62,348.12 550.62,375.12 561.24,375.12 561.24,402.12 550.62,402.12 550.62,429.12 561.24,429.12 561.24,456.12 550.62,456.12 550.62,483.12 561.24,483.12 561.24,522.18 550.62,522.18 550.62,550.62 522.18,550.62 522.18,561.24 483.12,561.24 483.12,550.62 456.12,550.62 456.12,561.24 429.12,561.24 429.12,550.62 402.12,550.62 402.12,561.24 375.12,561.24 375.12,550.62 348.12,550.62 348.12,561.24 321.12,561.24 321.12,550.62 294.12,550.62 294.12,561.24 267.12,561.24 267.12,550.62 240.12,550.62 240.12,561.24 213.12,561.24 213.12,550.62 186.12,550.62 186.12,561.24 159.12,561.24 159.12,550.62 132.12,550.62 132.12,561.24 105.12,561.24 105.12,550.62 78.12,550.62 78.12,561.24 39.06,561.24 39.06,550.62 10.62,550.62 10.62,522.18 0,522.18 0,483.12 10.62,483.12 10.62,456.12 0,456.12 0,429.12 10.62,429.12 10.62,402.12 0,402.12 0,375.12 10.62,375.12 10.62,348.12 0,348.12 0,321.12 10.62,321.12 10.62,294.12 0,294.12 0,267.12 10.62,267.12 10.62,240.12 0,240.12 0,213.12 10.62,213.12 10.62,186.12 0,186.12 0,159.12 10.62,159.12 10.62,132.12 0,132.12 0,105.12 10.62,105.12 10.62,78.12 0,78.12 0,39.06 10.62,39.06 10.62,10.62 39.06,10.62 39.06,0 78.12,0 "
       id="polygon14356" />
  </g>
  <g
     transform="matrix(0.28222223,0,0,0.28222223,114.29493,197.87013)"
     id="g14362">
    <polygon
       style="fill:none;stroke:#000000;stroke-width:0.89999998"
       points="78.12,10.62 105.12,10.62 105.12,0 132.12,0 132.12,10.62 159.12,10.62 159.12,0 186.12,0 186.12,10.62 213.12,10.62 213.12,0 240.12,0 240.12,10.62 267.12,10.62 267.12,0 294.12,0 294.12,10.62 321.12,10.62 321.12,0 348.12,0 348.12,10.62 375.12,10.62 375.12,0 402.12,0 402.12,10.62 429.12,10.62 429.12,0 456.12,0 456.12,10.62 483.12,10.62 483.12,0 522.18,0 522.18,10.62 550.62,10.62 550.62,39.06 561.24,39.06 561.24,78.12 550.62,78.12 550.62,105.12 561.24,105.12 561.24,132.12 550.62,132.12 550.62,159.12 561.24,159.12 561.24,186.12 550.62,186.12 550.62,213.12 561.24,213.12 561.24,240.12 550.62,240.12 550.62,267.12 561.24,267.12 561.24,294.12 550.62,294.12 550.62,321.12 561.24,321.12 561.24,348.12 550.62,348.12 550.62,375.12 561.24,375.12 561.24,402.12 550.62,402.12 550.62,429.12 561.24,429.12 561.24,456.12 550.62,456.12 550.62,483.12 561.24,483.12 561.24,522.18 550.62,522.18 550.62,550.62 522.18,550.62 522.18,561.24 483.12,561.24 483.12,550.62 456.12,550.62 456.12,561.24 429.12,561.24 429.12,550.62 402.12,550.62 402.12,561.24 375.12,561.24 375.12,550.62 348.12,550.62 348.12,561.24 321.12,561.24 321.12,550.62 294.12,550.62 294.12,561.24 267.12,561.24 267.12,550.62 240.12,550.62 240.12,561.24 213.12,561.24 213.12,550.62 186.12,550.62 186.12,561.24 159.12,561.24 159.12,550.62 132.12,550.62 132.12,561.24 105.12,561.24 105.12,550.62 78.12,550.62 78.12,561.24 39.06,561.24 39.06,550.62 10.62,550.62 10.62,522.18 0,522.18 0,483.12 10.62,483.12 10.62,456.12 0,456.12 0,429.12 10.62,429.12 10.62,402.12 0,402.12 0,375.12 10.62,375.12 10.62,348.12 0,348.12 0,321.12 10.62,321.12 10.62,294.12 0,294.12 0,267.12 10.62,267.12 10.62,240.12 0,240.12 0,213.12 10.62,213.12 10.62,186.12 0,186.12 0,159.12 10.62,159.12 10.62,132.12 0,132.12 0,105.12 10.62,105.12 10.62,78.12 0,78.12 0,39.06 10.62,39.06 10.62,10.62 39.06,10.62 39.06,0 78.12,0 "
       id="polygon14360" />
  </g>
</svg>
