<?xml version="1.0" encoding="UTF-8" standalone="no"?>
<svg
   xmlns:dc="http://purl.org/dc/elements/1.1/"
   xmlns:cc="http://creativecommons.org/ns#"
   xmlns:rdf="http://www.w3.org/1999/02/22-rdf-syntax-ns#"
   xmlns:svg="http://www.w3.org/2000/svg"
   xmlns="http://www.w3.org/2000/svg"
   xmlns:sodipodi="http://sodipodi.sourceforge.net/DTD/sodipodi-0.dtd"
   xmlns:inkscape="http://www.inkscape.org/namespaces/inkscape"
   version="1.1"
   width="19.208in"
   height="12.972in"
   viewBox=" 0 0 1728.7199999999998 1167.48"
   id="svg14364"
   sodipodi:docname="SimpleCase.svg"
   inkscape:version="0.92.3 (2405546, 2018-03-11)">
  <metadata
     id="metadata14370">
    <rdf:RDF>
      <cc:Work
         rdf:about="">
        <dc:format>image/svg+xml</dc:format>
        <dc:type
           rdf:resource="http://purl.org/dc/dcmitype/StillImage" />
        <dc:title></dc:title>
      </cc:Work>
    </rdf:RDF>
  </metadata>
  <defs
     id="defs14368" />
  <sodipodi:namedview
     pagecolor="#ffffff"
     bordercolor="#666666"
     borderopacity="1"
     objecttolerance="10"
     gridtolerance="10"
     guidetolerance="10"
     inkscape:pageopacity="0"
     inkscape:pageshadow="2"
     inkscape:window-width="1920"
     inkscape:window-height="1017"
     id="namedview14366"
     showgrid="false"
     inkscape:zoom="0.65686349"
     inkscape:cx="921.98401"
     inkscape:cy="632.41719"
     inkscape:window-x="-8"
     inkscape:window-y="-8"
     inkscape:window-maximized="1"
     inkscape:current-layer="svg14364" />
  <!-- Front-->
  <g
     transform="translate(22.5, 22.5) "
     id="g14342">
    <polygon
       style="stroke:#000000; fill:none; stroke-width:0.9"
       points="0, 0 39.059999999999995, 0 39.059999999999995, 10.62 78.11999999999999, 10.62 78.11999999999999, 0 105.11999999999999, 0 105.11999999999999, 10.62 132.12, 10.62 132.12, 0 159.12, 0 159.12, 10.62 186.12, 10.62 186.12, 0 213.12, 0 213.12, 10.62 240.12, 10.62 240.12, 0 267.12, 0 267.12, 10.62 294.12, 10.62 294.12, 0 321.12, 0 321.12, 10.62 348.12, 10.62 348.12, 0 375.12, 0 375.12, 10.62 402.12, 10.62 402.12, 0 429.12, 0 429.12, 10.62 456.12, 10.62 456.12, 0 483.12, 0 483.12, 10.62 522.18, 10.62 522.18, 0 561.24, 0 561.24, 39.059999999999995 550.62, 39.059999999999995 550.62, 78.11999999999999 561.24, 78.11999999999999 561.24, 105.11999999999999 550.62, 105.11999999999999 550.62, 132.12 561.24, 132.12 561.24, 159.12 550.62, 159.12 550.62, 186.12 561.24, 186.12 561.24, 213.12 550.62, 213.12 550.62, 240.12 561.24, 240.12 561.24, 267.12 550.62, 267.12 550.62, 294.12 561.24, 294.12 561.24, 321.12 550.62, 321.12 550.62, 348.12 561.24, 348.12 561.24, 375.12 550.62, 375.12 550.62, 402.12 561.24, 402.12 561.24, 429.12 550.62, 429.12 550.62, 456.12 561.24, 456.12 561.24, 483.12 550.62, 483.12 550.62, 522.18 561.24, 522.18 561.24, 561.24 522.18, 561.24 522.18, 550.62 483.12, 550.62 483.12, 561.24 456.12, 561.24 456.12, 550.62 429.12, 550.62 429.12, 561.24 402.12, 561.24 402.12, 550.62 375.12, 550.62 375.12, 561.24 348.12, 561.24 348.12, 550.62 321.12, 550.62 321.12, 561.24 294.12, 561.24 294.12, 550.62 267.12, 550.62 267.12, 561.24 240.12, 561.24 240.12, 550.62 213.12, 550.62 213.12, 561.24 186.12, 561.24 186.12, 550.62 159.12, 550.62 159.12, 561.24 132.12, 561.24 132.12, 550.62 105.11999999999999, 550.62 105.11999999999999, 561.24 78.11999999999999, 561.24 78.11999999999999, 550.62 39.059999999999995, 550.62 39.059999999999995, 561.24 0, 561.24 0, 522.18 10.62, 522.18 10.62, 483.12 0, 483.12 0, 456.12 10.62, 456.12 10.62, 429.12 0, 429.12 0, 402.12 10.62, 402.12 10.62, 375.12 0, 375.12 0, 348.12 10.62, 348.12 10.62, 321.12 0, 321.12 0, 294.12 10.62, 294.12 10.62, 267.12 0, 267.12 0, 240.12 10.62, 240.12 10.62, 213.12 0, 213.12 0, 186.12 10.62, 186.12 10.62, 159.12 0, 159.12 0, 132.12 10.62, 132.12 10.62, 105.11999999999999 0, 105.11999999999999 0, 78.11999999999999 10.62, 78.11999999999999 10.62, 39.059999999999995 0, 39.059999999999995 "
       id="polygon14340" />
  </g>
  <!-- Back-->
  <g
     transform="translate(583.74, 22.5) "
     id="g14346">
    <polygon
       style="stroke:#000000; fill:none; stroke-width:0.9"
       points="0, 0 39.059999999999995, 0 39.059999999999995, 10.62 78.11999999999999, 10.62 78.11999999999999, 0 105.11999999999999, 0 105.11999999999999, 10.62 132.12, 10.62 132.12, 0 159.12, 0 159.12, 10.62 186.12, 10.62 186.12, 0 213.12, 0 213.12, 10.62 240.12, 10.62 240.12, 0 267.12, 0 267.12, 10.62 294.12, 10.62 294.12, 0 321.12, 0 321.12, 10.62 348.12, 10.62 348.12, 0 375.12, 0 375.12, 10.62 402.12, 10.62 402.12, 0 429.12, 0 429.12, 10.62 456.12, 10.62 456.12, 0 483.12, 0 483.12, 10.62 522.18, 10.62 522.18, 0 561.24, 0 561.24, 39.059999999999995 550.62, 39.059999999999995 550.62, 78.11999999999999 561.24, 78.11999999999999 561.24, 105.11999999999999 550.62, 105.11999999999999 550.62, 132.12 561.24, 132.12 561.24, 159.12 550.62, 159.12 550.62, 186.12 561.24, 186.12 561.24, 213.12 550.62, 213.12 550.62, 240.12 561.24, 240.12 561.24, 267.12 550.62, 267.12 550.62, 294.12 561.24, 294.12 561.24, 321.12 550.62, 321.12 550.62, 348.12 561.24, 348.12 561.24, 375.12 550.62, 375.12 550.62, 402.12 561.24, 402.12 561.24, 429.12 550.62, 429.12 550.62, 456.12 561.24, 456.12 561.24, 483.12 550.62, 483.12 550.62, 522.18 561.24, 522.18 561.24, 561.24 522.18, 561.24 522.18, 550.62 483.12, 550.62 483.12, 561.24 456.12, 561.24 456.12, 550.62 429.12, 550.62 429.12, 561.24 402.12, 561.24 402.12, 550.62 375.12, 550.62 375.12, 561.24 348.12, 561.24 348.12, 550.62 321.12, 550.62 321.12, 561.24 294.12, 561.24 294.12, 550.62 267.12, 550.62 267.12, 561.24 240.12, 561.24 240.12, 550.62 213.12, 550.62 213.12, 561.24 186.12, 561.24 186.12, 550.62 159.12, 550.62 159.12, 561.24 132.12, 561.24 132.12, 550.62 105.11999999999999, 550.62 105.11999999999999, 561.24 78.11999999999999, 561.24 78.11999999999999, 550.62 39.059999999999995, 550.62 39.059999999999995, 561.24 0, 561.24 0, 522.18 10.62, 522.18 10.62, 483.12 0, 483.12 0, 456.12 10.62, 456.12 10.62, 429.12 0, 429.12 0, 402.12 10.62, 402.12 10.62, 375.12 0, 375.12 0, 348.12 10.62, 348.12 10.62, 321.12 0, 321.12 0, 294.12 10.62, 294.12 10.62, 267.12 0, 267.12 0, 240.12 10.62, 240.12 10.62, 213.12 0, 213.12 0, 186.12 10.62, 186.12 10.62, 159.12 0, 159.12 0, 132.12 10.62, 132.12 10.62, 105.11999999999999 0, 105.11999999999999 0, 78.11999999999999 10.62, 78.11999999999999 10.62, 39.059999999999995 0, 39.059999999999995 "
       id="polygon14344" />
  </g>
  <!-- Left-->
  <g
     transform="translate(1144.98, 22.5) "
     id="g14350">
    <polygon
       style="stroke:#000000; fill:none; stroke-width:0.9"
       points="10.62, 0 39.059999999999995, 0 39.059999999999995, 10.62 78.11999999999999, 10.62 78.11999999999999, 0 105.11999999999999, 0 105.11999999999999, 10.62 132.12, 10.62 132.12, 0 159.12, 0 159.12, 10.62 186.12, 10.62 186.12, 0 213.12, 0 213.12, 10.62 240.12, 10.62 240.12, 0 267.12, 0 267.12, 10.62 294.12, 10.62 294.12, 0 321.12, 0 321.12, 10.62 348.12, 10.62 348.12, 0 375.12, 0 375.12, 10.62 402.12, 10.62 402.12, 0 429.12, 0 429.12, 10.62 456.12, 10.62 456.12, 0 483.12, 0 483.12, 10.62 522.18, 10.62 522.18, 0 550.62, 0 550.62, 39.059999999999995 561.24, 39.059999999999995 561.24, 78.11999999999999 550.62, 78.11999999999999 550.62, 105.11999999999999 561.24, 105.11999999999999 561.24, 132.12 550.62, 132.12 550.62, 159.12 561.24, 159.12 561.24, 186.12 550.62, 186.12 550.62, 213.12 561.24, 213.12 561.24, 240.12 550.62, 240.12 550.62, 267.12 561.24, 267.12 561.24, 294.12 550.62, 294.12 550.62, 321.12 561.24, 321.12 561.24, 348.12 550.62, 348.12 550.62, 375.12 561.24, 375.12 561.24, 402.12 550.62, 402.12 550.62, 429.12 561.24, 429.12 561.24, 456.12 550.62, 456.12 550.62, 483.12 561.24, 483.12 561.24, 522.18 550.62, 522.18 550.62, 561.24 522.18, 561.24 522.18, 550.62 483.12, 550.62 483.12, 561.24 456.12, 561.24 456.12, 550.62 429.12, 550.62 429.12, 561.24 402.12, 561.24 402.12, 550.62 375.12, 550.62 375.12, 561.24 348.12, 561.24 348.12, 550.62 321.12, 550.62 321.12, 561.24 294.12, 561.24 294.12, 550.62 267.12, 550.62 267.12, 561.24 240.12, 561.24 240.12, 550.62 213.12, 550.62 213.12, 561.24 186.12, 561.24 186.12, 550.62 159.12, 550.62 159.12, 561.24 132.12, 561.24 132.12, 550.62 105.11999999999999, 550.62 105.11999999999999, 561.24 78.11999999999999, 561.24 78.11999999999999, 550.62 39.059999999999995, 550.62 39.059999999999995, 561.24 10.62, 561.24 10.62, 522.18 0, 522.18 0, 483.12 10.62, 483.12 10.62, 456.12 0, 456.12 0, 429.12 10.62, 429.12 10.62, 402.12 0, 402.12 0, 375.12 10.62, 375.12 10.62, 348.12 0, 348.12 0, 321.12 10.62, 321.12 10.62, 294.12 0, 294.12 0, 267.12 10.62, 267.12 10.62, 240.12 0, 240.12 0, 213.12 10.62, 213.12 10.62, 186.12 0, 186.12 0, 159.12 10.62, 159.12 10.62, 132.12 0, 132.12 0, 105.11999999999999 10.62, 105.11999999999999 10.62, 78.11999999999999 0, 78.11999999999999 0, 39.059999999999995 10.62, 39.059999999999995 "
       id="polygon14348" />
  </g>
  <!-- Right-->
  <g
     transform="translate(1144.98, 583.74) "
     id="g14354">
    <polygon
       style="stroke:#000000; fill:none; stroke-width:0.9"
       points="10.62, 0 39.059999999999995, 0 39.059999999999995, 10.62 78.11999999999999, 10.62 78.11999999999999, 0 105.11999999999999, 0 105.11999999999999, 10.62 132.12, 10.62 132.12, 0 159.12, 0 159.12, 10.62 186.12, 10.62 186.12, 0 213.12, 0 213.12, 10.62 240.12, 10.62 240.12, 0 267.12, 0 267.12, 10.62 294.12, 10.62 294.12, 0 321.12, 0 321.12, 10.62 348.12, 10.62 348.12, 0 375.12, 0 375.12, 10.62 402.12, 10.62 402.12, 0 429.12, 0 429.12, 10.62 456.12, 10.62 456.12, 0 483.12, 0 483.12, 10.62 522.18, 10.62 522.18, 0 550.62, 0 550.62, 39.059999999999995 561.24, 39.059999999999995 561.24, 78.11999999999999 550.62, 78.11999999999999 550.62, 105.11999999999999 561.24, 105.11999999999999 561.24, 132.12 550.62, 132.12 550.62, 159.12 561.24, 159.12 561.24, 186.12 550.62, 186.12 550.62, 213.12 561.24, 213.12 561.24, 240.12 550.62, 240.12 550.62, 267.12 561.24, 267.12 561.24, 294.12 550.62, 294.12 550.62, 321.12 561.24, 321.12 561.24, 348.12 550.62, 348.12 550.62, 375.12 561.24, 375.12 561.24, 402.12 550.62, 402.12 550.62, 429.12 561.24, 429.12 561.24, 456.12 550.62, 456.12 550.62, 483.12 561.24, 483.12 561.24, 522.18 550.62, 522.18 550.62, 561.24 522.18, 561.24 522.18, 550.62 483.12, 550.62 483.12, 561.24 456.12, 561.24 456.12, 550.62 429.12, 550.62 429.12, 561.24 402.12, 561.24 402.12, 550.62 375.12, 550.62 375.12, 561.24 348.12, 561.24 348.12, 550.62 321.12, 550.62 321.12, 561.24 294.12, 561.24 294.12, 550.62 267.12, 550.62 267.12, 561.24 240.12, 561.24 240.12, 550.62 213.12, 550.62 213.12, 561.24 186.12, 561.24 186.12, 550.62 159.12, 550.62 159.12, 561.24 132.12, 561.24 132.12, 550.62 105.11999999999999, 550.62 105.11999999999999, 561.24 78.11999999999999, 561.24 78.11999999999999, 550.62 39.059999999999995, 550.62 39.059999999999995, 561.24 10.62, 561.24 10.62, 522.18 0, 522.18 0, 483.12 10.62, 483.12 10.62, 456.12 0, 456.12 0, 429.12 10.62, 429.12 10.62, 402.12 0, 402.12 0, 375.12 10.62, 375.12 10.62, 348.12 0, 348.12 0, 321.12 10.62, 321.12 10.62, 294.12 0, 294.12 0, 267.12 10.62, 267.12 10.62, 240.12 0, 240.12 0, 213.12 10.62, 213.12 10.62, 186.12 0, 186.12 0, 159.12 10.62, 159.12 10.62, 132.12 0, 132.12 0, 105.11999999999999 10.62, 105.11999999999999 10.62, 78.11999999999999 0, 78.11999999999999 0, 39.059999999999995 10.62, 39.059999999999995 "
       id="polygon14352" />
  </g>
  <!-- Top-->
  <g
     transform="translate(22.5, 583.74) "
     id="g14358">
    <polygon
       style="stroke:#000000; fill:none; stroke-width:0.9"
       points="10.62, 10.62 39.059999999999995, 10.62 39.059999999999995, 0 78.11999999999999, 0 78.11999999999999, 10.62 105.11999999999999, 10.62 105.11999999999999, 0 132.12, 0 132.12, 10.62 159.12, 10.62 159.12, 0 186.12, 0 186.12, 10.62 213.12, 10.62 213.12, 0 240.12, 0 240.12, 10.62 267.12, 10.62 267.12, 0 294.12, 0 294.12, 10.62 321.12, 10.62 321.12, 0 348.12, 0 348.12, 10.62 375.12, 10.62 375.12, 0 402.12, 0 402.12, 10.62 429.12, 10.62 429.12, 0 456.12, 0 456.12, 10.62 483.12, 10.62 483.12, 0 522.18, 0 522.18, 10.62 550.62, 10.62 550.62, 39.059999999999995 561.24, 39.059999999999995 561.24, 78.11999999999999 550.62, 78.11999999999999 550.62, 105.11999999999999 561.24, 105.11999999999999 561.24, 132.12 550.62, 132.12 550.62, 159.12 561.24, 159.12 561.24, 186.12 550.62, 186.12 550.62, 213.12 561.24, 213.12 561.24, 240.12 550.62, 240.12 550.62, 267.12 561.24, 267.12 561.24, 294.12 550.62, 294.12 550.62, 321.12 561.24, 321.12 561.24, 348.12 550.62, 348.12 550.62, 375.12 561.24, 375.12 561.24, 402.12 550.62, 402.12 550.62, 429.12 561.24, 429.12 561.24, 456.12 550.62, 456.12 550.62, 483.12 561.24, 483.12 561.24, 522.18 550.62, 522.18 550.62, 550.62 522.18, 550.62 522.18, 561.24 483.12, 561.24 483.12, 550.62 456.12, 550.62 456.12, 561.24 429.12, 561.24 429.12, 550.62 402.12, 550.62 402.12, 561.24 375.12, 561.24 375.12, 550.62 348.12, 550.62 348.12, 561.24 321.12, 561.24 321.12, 550.62 294.12, 550.62 294.12, 561.24 267.12, 561.24 267.12, 550.62 240.12, 550.62 240.12, 561.24 213.12, 561.24 213.12, 550.62 186.12, 550.62 186.12, 561.24 159.12, 561.24 159.12, 550.62 132.12, 550.62 132.12, 561.24 105.11999999999999, 561.24 105.11999999999999, 550.62 78.11999999999999, 550.62 78.11999999999999, 561.24 39.059999999999995, 561.24 39.059999999999995, 550.62 10.62, 550.62 10.62, 522.18 0, 522.18 0, 483.12 10.62, 483.12 10.62, 456.12 0, 456.12 0, 429.12 10.62, 429.12 10.62, 402.12 0, 402.12 0, 375.12 10.62, 375.12 10.62, 348.12 0, 348.12 0, 321.12 10.62, 321.12 10.62, 294.12 0, 294.12 0, 267.12 10.62, 267.12 10.62, 240.12 0, 240.12 0, 213.12 10.62, 213.12 10.62, 186.12 0, 186.12 0, 159.12 10.62, 159.12 10.62, 132.12 0, 132.12 0, 105.11999999999999 10.62, 105.11999999999999 10.62, 78.11999999999999 0, 78.11999999999999 0, 39.059999999999995 10.62, 39.059999999999995 "
       id="polygon14356" />
  </g>
  <!-- Bottom-->
  <g
     transform="translate(583.74, 583.74) "
     id="g14362">
    <polygon
       style="stroke:#000000; fill:none; stroke-width:0.9"
       points="10.62, 10.62 39.059999999999995, 10.62 39.059999999999995, 0 78.11999999999999, 0 78.11999999999999, 10.62 105.11999999999999, 10.62 105.11999999999999, 0 132.12, 0 132.12, 10.62 159.12, 10.62 159.12, 0 186.12, 0 186.12, 10.62 213.12, 10.62 213.12, 0 240.12, 0 240.12, 10.62 267.12, 10.62 267.12, 0 294.12, 0 294.12, 10.62 321.12, 10.62 321.12, 0 348.12, 0 348.12, 10.62 375.12, 10.62 375.12, 0 402.12, 0 402.12, 10.62 429.12, 10.62 429.12, 0 456.12, 0 456.12, 10.62 483.12, 10.62 483.12, 0 522.18, 0 522.18, 10.62 550.62, 10.62 550.62, 39.059999999999995 561.24, 39.059999999999995 561.24, 78.11999999999999 550.62, 78.11999999999999 550.62, 105.11999999999999 561.24, 105.11999999999999 561.24, 132.12 550.62, 132.12 550.62, 159.12 561.24, 159.12 561.24, 186.12 550.62, 186.12 550.62, 213.12 561.24, 213.12 561.24, 240.12 550.62, 240.12 550.62, 267.12 561.24, 267.12 561.24, 294.12 550.62, 294.12 550.62, 321.12 561.24, 321.12 561.24, 348.12 550.62, 348.12 550.62, 375.12 561.24, 375.12 561.24, 402.12 550.62, 402.12 550.62, 429.12 561.24, 429.12 561.24, 456.12 550.62, 456.12 550.62, 483.12 561.24, 483.12 561.24, 522.18 550.62, 522.18 550.62, 550.62 522.18, 550.62 522.18, 561.24 483.12, 561.24 483.12, 550.62 456.12, 550.62 456.12, 561.24 429.12, 561.24 429.12, 550.62 402.12, 550.62 402.12, 561.24 375.12, 561.24 375.12, 550.62 348.12, 550.62 348.12, 561.24 321.12, 561.24 321.12, 550.62 294.12, 550.62 294.12, 561.24 267.12, 561.24 267.12, 550.62 240.12, 550.62 240.12, 561.24 213.12, 561.24 213.12, 550.62 186.12, 550.62 186.12, 561.24 159.12, 561.24 159.12, 550.62 132.12, 550.62 132.12, 561.24 105.11999999999999, 561.24 105.11999999999999, 550.62 78.11999999999999, 550.62 78.11999999999999, 561.24 39.059999999999995, 561.24 39.059999999999995, 550.62 10.62, 550.62 10.62, 522.18 0, 522.18 0, 483.12 10.62, 483.12 10.62, 456.12 0, 456.12 0, 429.12 10.62, 429.12 10.62, 402.12 0, 402.12 0, 375.12 10.62, 375.12 10.62, 348.12 0, 348.12 0, 321.12 10.62, 321.12 10.62, 294.12 0, 294.12 0, 267.12 10.62, 267.12 10.62, 240.12 0, 240.12 0, 213.12 10.62, 213.12 10.62, 186.12 0, 186.12 0, 159.12 10.62, 159.12 10.62, 132.12 0, 132.12 0, 105.11999999999999 10.62, 105.11999999999999 10.62, 78.11999999999999 0, 78.11999999999999 0, 39.059999999999995 10.62, 39.059999999999995 "
       id="polygon14360" />
  </g>
</svg>
